<mxfile host="app.diagrams.net" modified="2024-02-05T10:52:53.810Z" agent="Mozilla/5.0 (Macintosh; Intel Mac OS X 10_15_7) AppleWebKit/537.36 (KHTML, like Gecko) Chrome/121.0.0.0 Safari/537.36" version="23.1.1" etag="APheEaW0P67aa4z4LRgc" type="github">
  <diagram name="第 1 页" id="tuXKjIxNM8UKBbV8ssHX">
    <mxGraphModel>
      <root>
        <mxCell id="0" />
        <mxCell id="1" parent="0" />
      </root>
    </mxGraphModel>
  </diagram>
</mxfile>
